<mxfile host="app.diagrams.net" agent="Mozilla/5.0 (Windows NT 10.0; Win64; x64) AppleWebKit/537.36 (KHTML, like Gecko) Chrome/129.0.0.0 Safari/537.36" version="24.7.17">
  <diagram name="PÃ¡gina-1" id="_TZk-VBSfBG-fOWsmnnx">
    <mxGraphModel grid="1" page="1" gridSize="10" guides="1" tooltips="1" connect="1" arrows="1" fold="1" pageScale="1" pageWidth="827" pageHeight="1169" math="0" shadow="0">
      <root>
        <mxCell id="0" />
        <mxCell id="1" parent="0" />
        <mxCell id="JfAFxv9XHzVIEhKvCDaF-9" style="edgeStyle=orthogonalEdgeStyle;rounded=0;orthogonalLoop=1;jettySize=auto;html=1;entryX=0;entryY=0.5;entryDx=0;entryDy=0;fillColor=#f8cecc;strokeColor=#b85450;" edge="1" parent="1" source="JfAFxv9XHzVIEhKvCDaF-1" target="JfAFxv9XHzVIEhKvCDaF-2">
          <mxGeometry relative="1" as="geometry" />
        </mxCell>
        <mxCell id="1YkeTyR81IGIItmo_7Jy-1" value="1" style="edgeLabel;html=1;align=center;verticalAlign=middle;resizable=0;points=[];" connectable="0" vertex="1" parent="JfAFxv9XHzVIEhKvCDaF-9">
          <mxGeometry x="0.248" y="1" relative="1" as="geometry">
            <mxPoint x="-1" y="-9" as="offset" />
          </mxGeometry>
        </mxCell>
        <mxCell id="JfAFxv9XHzVIEhKvCDaF-1" value="1.1" style="ellipse;whiteSpace=wrap;html=1;aspect=fixed;" vertex="1" parent="1">
          <mxGeometry x="10" y="10" width="40" height="40" as="geometry" />
        </mxCell>
        <mxCell id="JfAFxv9XHzVIEhKvCDaF-13" style="edgeStyle=orthogonalEdgeStyle;rounded=0;orthogonalLoop=1;jettySize=auto;html=1;entryX=0;entryY=0.5;entryDx=0;entryDy=0;fillColor=#f8cecc;strokeColor=#b85450;" edge="1" parent="1" source="JfAFxv9XHzVIEhKvCDaF-2" target="JfAFxv9XHzVIEhKvCDaF-3">
          <mxGeometry relative="1" as="geometry" />
        </mxCell>
        <mxCell id="1YkeTyR81IGIItmo_7Jy-2" value="3" style="edgeLabel;html=1;align=center;verticalAlign=middle;resizable=0;points=[];" connectable="0" vertex="1" parent="JfAFxv9XHzVIEhKvCDaF-13">
          <mxGeometry x="-0.2564" relative="1" as="geometry">
            <mxPoint x="-2" y="-10" as="offset" />
          </mxGeometry>
        </mxCell>
        <mxCell id="JfAFxv9XHzVIEhKvCDaF-2" value="1.2" style="ellipse;whiteSpace=wrap;html=1;aspect=fixed;" vertex="1" parent="1">
          <mxGeometry x="80" y="10" width="40" height="40" as="geometry" />
        </mxCell>
        <mxCell id="JfAFxv9XHzVIEhKvCDaF-11" style="edgeStyle=orthogonalEdgeStyle;rounded=0;orthogonalLoop=1;jettySize=auto;html=1;entryX=0;entryY=0.5;entryDx=0;entryDy=0;fillColor=#f8cecc;strokeColor=#b85450;" edge="1" parent="1" source="JfAFxv9XHzVIEhKvCDaF-3" target="JfAFxv9XHzVIEhKvCDaF-4">
          <mxGeometry relative="1" as="geometry" />
        </mxCell>
        <mxCell id="1YkeTyR81IGIItmo_7Jy-3" value="3" style="edgeLabel;html=1;align=center;verticalAlign=middle;resizable=0;points=[];" connectable="0" vertex="1" parent="JfAFxv9XHzVIEhKvCDaF-11">
          <mxGeometry x="-0.2606" y="-1" relative="1" as="geometry">
            <mxPoint y="-10" as="offset" />
          </mxGeometry>
        </mxCell>
        <mxCell id="JfAFxv9XHzVIEhKvCDaF-3" value="1.2.1" style="ellipse;whiteSpace=wrap;html=1;aspect=fixed;" vertex="1" parent="1">
          <mxGeometry x="150" y="7.5" width="42.5" height="42.5" as="geometry" />
        </mxCell>
        <mxCell id="1YkeTyR81IGIItmo_7Jy-7" style="edgeStyle=orthogonalEdgeStyle;rounded=0;orthogonalLoop=1;jettySize=auto;html=1;entryX=0;entryY=0.5;entryDx=0;entryDy=0;fillColor=#f8cecc;strokeColor=#b85450;" edge="1" parent="1" source="JfAFxv9XHzVIEhKvCDaF-4" target="1YkeTyR81IGIItmo_7Jy-6">
          <mxGeometry relative="1" as="geometry" />
        </mxCell>
        <mxCell id="1YkeTyR81IGIItmo_7Jy-54" value="3" style="edgeLabel;html=1;align=center;verticalAlign=middle;resizable=0;points=[];" connectable="0" vertex="1" parent="1YkeTyR81IGIItmo_7Jy-7">
          <mxGeometry x="0.0419" y="6" relative="1" as="geometry">
            <mxPoint x="-2" y="-2" as="offset" />
          </mxGeometry>
        </mxCell>
        <mxCell id="JfAFxv9XHzVIEhKvCDaF-4" value="1.2.2" style="ellipse;whiteSpace=wrap;html=1;aspect=fixed;" vertex="1" parent="1">
          <mxGeometry x="220" y="6.88" width="43.12" height="43.12" as="geometry" />
        </mxCell>
        <mxCell id="lcrHF27Oe8sUzLJfKoiB-8" style="edgeStyle=orthogonalEdgeStyle;rounded=0;orthogonalLoop=1;jettySize=auto;html=1;" edge="1" parent="1" source="JfAFxv9XHzVIEhKvCDaF-6" target="JfAFxv9XHzVIEhKvCDaF-34">
          <mxGeometry relative="1" as="geometry" />
        </mxCell>
        <mxCell id="lcrHF27Oe8sUzLJfKoiB-17" value="4" style="edgeLabel;html=1;align=center;verticalAlign=middle;resizable=0;points=[];" connectable="0" vertex="1" parent="lcrHF27Oe8sUzLJfKoiB-8">
          <mxGeometry x="-0.5097" relative="1" as="geometry">
            <mxPoint as="offset" />
          </mxGeometry>
        </mxCell>
        <mxCell id="JfAFxv9XHzVIEhKvCDaF-6" value="1.4" style="ellipse;whiteSpace=wrap;html=1;aspect=fixed;" vertex="1" parent="1">
          <mxGeometry x="386.24" y="60" width="40" height="40" as="geometry" />
        </mxCell>
        <mxCell id="lcrHF27Oe8sUzLJfKoiB-9" style="edgeStyle=orthogonalEdgeStyle;rounded=0;orthogonalLoop=1;jettySize=auto;html=1;entryX=0;entryY=0.5;entryDx=0;entryDy=0;" edge="1" parent="1" source="JfAFxv9XHzVIEhKvCDaF-7" target="JfAFxv9XHzVIEhKvCDaF-34">
          <mxGeometry relative="1" as="geometry" />
        </mxCell>
        <mxCell id="lcrHF27Oe8sUzLJfKoiB-18" value="4" style="edgeLabel;html=1;align=center;verticalAlign=middle;resizable=0;points=[];" connectable="0" vertex="1" parent="lcrHF27Oe8sUzLJfKoiB-9">
          <mxGeometry x="-0.7546" y="-1" relative="1" as="geometry">
            <mxPoint as="offset" />
          </mxGeometry>
        </mxCell>
        <mxCell id="JfAFxv9XHzVIEhKvCDaF-7" value="1.5" style="ellipse;whiteSpace=wrap;html=1;aspect=fixed;" vertex="1" parent="1">
          <mxGeometry x="384.37" y="110" width="40" height="40" as="geometry" />
        </mxCell>
        <mxCell id="JfAFxv9XHzVIEhKvCDaF-25" style="edgeStyle=orthogonalEdgeStyle;rounded=0;orthogonalLoop=1;jettySize=auto;html=1;entryX=0;entryY=0.5;entryDx=0;entryDy=0;" edge="1" parent="1" source="JfAFxv9XHzVIEhKvCDaF-18" target="JfAFxv9XHzVIEhKvCDaF-22">
          <mxGeometry relative="1" as="geometry" />
        </mxCell>
        <mxCell id="1YkeTyR81IGIItmo_7Jy-21" value="23" style="edgeLabel;html=1;align=center;verticalAlign=middle;resizable=0;points=[];" connectable="0" vertex="1" parent="JfAFxv9XHzVIEhKvCDaF-25">
          <mxGeometry x="-0.3117" relative="1" as="geometry">
            <mxPoint y="-10" as="offset" />
          </mxGeometry>
        </mxCell>
        <mxCell id="JfAFxv9XHzVIEhKvCDaF-18" value="1.6" style="ellipse;whiteSpace=wrap;html=1;aspect=fixed;" vertex="1" parent="1">
          <mxGeometry x="505.12" y="6" width="40" height="40" as="geometry" />
        </mxCell>
        <mxCell id="lcrHF27Oe8sUzLJfKoiB-22" style="edgeStyle=orthogonalEdgeStyle;rounded=0;orthogonalLoop=1;jettySize=auto;html=1;entryX=0;entryY=0.5;entryDx=0;entryDy=0;" edge="1" parent="1" source="JfAFxv9XHzVIEhKvCDaF-21" target="JfAFxv9XHzVIEhKvCDaF-29">
          <mxGeometry relative="1" as="geometry" />
        </mxCell>
        <mxCell id="lcrHF27Oe8sUzLJfKoiB-25" value="19" style="edgeLabel;html=1;align=center;verticalAlign=middle;resizable=0;points=[];" connectable="0" vertex="1" parent="lcrHF27Oe8sUzLJfKoiB-22">
          <mxGeometry x="-0.8513" y="1" relative="1" as="geometry">
            <mxPoint as="offset" />
          </mxGeometry>
        </mxCell>
        <mxCell id="JfAFxv9XHzVIEhKvCDaF-21" value="1.5.1" style="ellipse;whiteSpace=wrap;html=1;aspect=fixed;" vertex="1" parent="1">
          <mxGeometry x="592" y="190" width="40" height="40" as="geometry" />
        </mxCell>
        <mxCell id="JfAFxv9XHzVIEhKvCDaF-33" style="edgeStyle=orthogonalEdgeStyle;rounded=0;orthogonalLoop=1;jettySize=auto;html=1;" edge="1" parent="1" source="JfAFxv9XHzVIEhKvCDaF-22" target="JfAFxv9XHzVIEhKvCDaF-29">
          <mxGeometry relative="1" as="geometry" />
        </mxCell>
        <mxCell id="1YkeTyR81IGIItmo_7Jy-25" value="19" style="edgeLabel;html=1;align=center;verticalAlign=middle;resizable=0;points=[];" connectable="0" vertex="1" parent="JfAFxv9XHzVIEhKvCDaF-33">
          <mxGeometry x="-0.3781" y="2" relative="1" as="geometry">
            <mxPoint x="3" y="-9" as="offset" />
          </mxGeometry>
        </mxCell>
        <mxCell id="JfAFxv9XHzVIEhKvCDaF-22" value="1.6.1" style="ellipse;whiteSpace=wrap;html=1;aspect=fixed;" vertex="1" parent="1">
          <mxGeometry x="589.75" y="6" width="41" height="41" as="geometry" />
        </mxCell>
        <mxCell id="lcrHF27Oe8sUzLJfKoiB-21" style="edgeStyle=orthogonalEdgeStyle;rounded=0;orthogonalLoop=1;jettySize=auto;html=1;entryX=0;entryY=0.5;entryDx=0;entryDy=0;" edge="1" parent="1" source="JfAFxv9XHzVIEhKvCDaF-27" target="JfAFxv9XHzVIEhKvCDaF-29">
          <mxGeometry relative="1" as="geometry" />
        </mxCell>
        <mxCell id="lcrHF27Oe8sUzLJfKoiB-24" value="19" style="edgeLabel;html=1;align=center;verticalAlign=middle;resizable=0;points=[];" connectable="0" vertex="1" parent="lcrHF27Oe8sUzLJfKoiB-21">
          <mxGeometry x="-0.787" y="1" relative="1" as="geometry">
            <mxPoint as="offset" />
          </mxGeometry>
        </mxCell>
        <mxCell id="JfAFxv9XHzVIEhKvCDaF-27" value="1.4.1" style="ellipse;whiteSpace=wrap;html=1;aspect=fixed;" vertex="1" parent="1">
          <mxGeometry x="593.25" y="130" width="40" height="40" as="geometry" />
        </mxCell>
        <mxCell id="lcrHF27Oe8sUzLJfKoiB-15" style="edgeStyle=orthogonalEdgeStyle;rounded=0;orthogonalLoop=1;jettySize=auto;html=1;" edge="1" parent="1" source="JfAFxv9XHzVIEhKvCDaF-29" target="JfAFxv9XHzVIEhKvCDaF-51">
          <mxGeometry relative="1" as="geometry">
            <Array as="points">
              <mxPoint x="736" y="250" />
              <mxPoint x="220" y="250" />
            </Array>
          </mxGeometry>
        </mxCell>
        <mxCell id="lcrHF27Oe8sUzLJfKoiB-26" value="3" style="edgeLabel;html=1;align=center;verticalAlign=middle;resizable=0;points=[];" connectable="0" vertex="1" parent="lcrHF27Oe8sUzLJfKoiB-15">
          <mxGeometry x="-0.7581" y="1" relative="1" as="geometry">
            <mxPoint as="offset" />
          </mxGeometry>
        </mxCell>
        <mxCell id="JfAFxv9XHzVIEhKvCDaF-29" value="1.7" style="ellipse;whiteSpace=wrap;html=1;aspect=fixed;" vertex="1" parent="1">
          <mxGeometry x="715.75" y="6" width="40" height="40" as="geometry" />
        </mxCell>
        <mxCell id="JfAFxv9XHzVIEhKvCDaF-46" style="edgeStyle=orthogonalEdgeStyle;rounded=0;orthogonalLoop=1;jettySize=auto;html=1;fillColor=#f8cecc;strokeColor=#b85450;" edge="1" parent="1" source="JfAFxv9XHzVIEhKvCDaF-34" target="JfAFxv9XHzVIEhKvCDaF-45">
          <mxGeometry relative="1" as="geometry">
            <Array as="points">
              <mxPoint x="491" y="240" />
              <mxPoint x="30" y="240" />
              <mxPoint x="30" y="350" />
            </Array>
          </mxGeometry>
        </mxCell>
        <mxCell id="JfAFxv9XHzVIEhKvCDaF-47" style="edgeStyle=orthogonalEdgeStyle;rounded=0;orthogonalLoop=1;jettySize=auto;html=1;entryX=0;entryY=0.5;entryDx=0;entryDy=0;" edge="1" parent="1" source="JfAFxv9XHzVIEhKvCDaF-34" target="JfAFxv9XHzVIEhKvCDaF-43">
          <mxGeometry relative="1" as="geometry">
            <Array as="points">
              <mxPoint x="490" y="240" />
              <mxPoint x="30" y="240" />
              <mxPoint x="30" y="290" />
            </Array>
          </mxGeometry>
        </mxCell>
        <mxCell id="1YkeTyR81IGIItmo_7Jy-27" value="1" style="edgeLabel;html=1;align=center;verticalAlign=middle;resizable=0;points=[];" connectable="0" vertex="1" parent="JfAFxv9XHzVIEhKvCDaF-47">
          <mxGeometry x="-0.0549" y="-4" relative="1" as="geometry">
            <mxPoint x="-62" as="offset" />
          </mxGeometry>
        </mxCell>
        <mxCell id="lcrHF27Oe8sUzLJfKoiB-11" style="edgeStyle=orthogonalEdgeStyle;rounded=0;orthogonalLoop=1;jettySize=auto;html=1;entryX=0;entryY=0.5;entryDx=0;entryDy=0;" edge="1" parent="1" source="JfAFxv9XHzVIEhKvCDaF-34" target="JfAFxv9XHzVIEhKvCDaF-20">
          <mxGeometry relative="1" as="geometry" />
        </mxCell>
        <mxCell id="lcrHF27Oe8sUzLJfKoiB-13" style="edgeStyle=orthogonalEdgeStyle;rounded=0;orthogonalLoop=1;jettySize=auto;html=1;entryX=0;entryY=0.5;entryDx=0;entryDy=0;" edge="1" parent="1" source="JfAFxv9XHzVIEhKvCDaF-34" target="JfAFxv9XHzVIEhKvCDaF-27">
          <mxGeometry relative="1" as="geometry" />
        </mxCell>
        <mxCell id="lcrHF27Oe8sUzLJfKoiB-14" style="edgeStyle=orthogonalEdgeStyle;rounded=0;orthogonalLoop=1;jettySize=auto;html=1;entryX=0;entryY=0.5;entryDx=0;entryDy=0;" edge="1" parent="1" source="JfAFxv9XHzVIEhKvCDaF-34" target="JfAFxv9XHzVIEhKvCDaF-21">
          <mxGeometry relative="1" as="geometry" />
        </mxCell>
        <mxCell id="lcrHF27Oe8sUzLJfKoiB-20" value="1" style="edgeLabel;html=1;align=center;verticalAlign=middle;resizable=0;points=[];" connectable="0" vertex="1" parent="lcrHF27Oe8sUzLJfKoiB-14">
          <mxGeometry x="-0.8634" relative="1" as="geometry">
            <mxPoint as="offset" />
          </mxGeometry>
        </mxCell>
        <mxCell id="JfAFxv9XHzVIEhKvCDaF-34" value="1.8" style="ellipse;whiteSpace=wrap;html=1;aspect=fixed;" vertex="1" parent="1">
          <mxGeometry x="471.25" y="45" width="40" height="40" as="geometry" />
        </mxCell>
        <mxCell id="lcrHF27Oe8sUzLJfKoiB-12" style="edgeStyle=orthogonalEdgeStyle;rounded=0;orthogonalLoop=1;jettySize=auto;html=1;entryX=0;entryY=0.5;entryDx=0;entryDy=0;" edge="1" parent="1" source="JfAFxv9XHzVIEhKvCDaF-20" target="JfAFxv9XHzVIEhKvCDaF-29">
          <mxGeometry relative="1" as="geometry" />
        </mxCell>
        <mxCell id="lcrHF27Oe8sUzLJfKoiB-23" value="19" style="edgeLabel;html=1;align=center;verticalAlign=middle;resizable=0;points=[];" connectable="0" vertex="1" parent="lcrHF27Oe8sUzLJfKoiB-12">
          <mxGeometry x="-0.6907" relative="1" as="geometry">
            <mxPoint as="offset" />
          </mxGeometry>
        </mxCell>
        <mxCell id="JfAFxv9XHzVIEhKvCDaF-20" value="1.3.1" style="ellipse;whiteSpace=wrap;html=1;aspect=fixed;" vertex="1" parent="1">
          <mxGeometry x="590.75" y="67.5" width="42.5" height="42.5" as="geometry" />
        </mxCell>
        <mxCell id="JfAFxv9XHzVIEhKvCDaF-49" style="edgeStyle=orthogonalEdgeStyle;rounded=0;orthogonalLoop=1;jettySize=auto;html=1;entryX=0.5;entryY=0;entryDx=0;entryDy=0;" edge="1" parent="1" source="JfAFxv9XHzVIEhKvCDaF-43" target="JfAFxv9XHzVIEhKvCDaF-48">
          <mxGeometry relative="1" as="geometry" />
        </mxCell>
        <mxCell id="1YkeTyR81IGIItmo_7Jy-29" value="6" style="edgeLabel;html=1;align=center;verticalAlign=middle;resizable=0;points=[];" connectable="0" vertex="1" parent="JfAFxv9XHzVIEhKvCDaF-49">
          <mxGeometry x="-0.2778" y="1" relative="1" as="geometry">
            <mxPoint as="offset" />
          </mxGeometry>
        </mxCell>
        <mxCell id="JfAFxv9XHzVIEhKvCDaF-43" value="2.1" style="ellipse;whiteSpace=wrap;html=1;aspect=fixed;" vertex="1" parent="1">
          <mxGeometry x="40" y="270" width="40" height="40" as="geometry" />
        </mxCell>
        <mxCell id="JfAFxv9XHzVIEhKvCDaF-50" style="edgeStyle=orthogonalEdgeStyle;rounded=0;orthogonalLoop=1;jettySize=auto;html=1;entryX=0.5;entryY=1;entryDx=0;entryDy=0;fillColor=#f8cecc;strokeColor=#b85450;" edge="1" parent="1" source="JfAFxv9XHzVIEhKvCDaF-45" target="JfAFxv9XHzVIEhKvCDaF-48">
          <mxGeometry relative="1" as="geometry" />
        </mxCell>
        <mxCell id="1YkeTyR81IGIItmo_7Jy-30" value="6" style="edgeLabel;html=1;align=center;verticalAlign=middle;resizable=0;points=[];" connectable="0" vertex="1" parent="JfAFxv9XHzVIEhKvCDaF-50">
          <mxGeometry x="-0.4819" y="-1" relative="1" as="geometry">
            <mxPoint as="offset" />
          </mxGeometry>
        </mxCell>
        <mxCell id="JfAFxv9XHzVIEhKvCDaF-45" value="2.2" style="ellipse;whiteSpace=wrap;html=1;aspect=fixed;" vertex="1" parent="1">
          <mxGeometry x="40" y="330" width="40" height="40" as="geometry" />
        </mxCell>
        <mxCell id="JfAFxv9XHzVIEhKvCDaF-52" style="edgeStyle=orthogonalEdgeStyle;rounded=0;orthogonalLoop=1;jettySize=auto;html=1;entryX=0;entryY=0.5;entryDx=0;entryDy=0;" edge="1" parent="1" source="JfAFxv9XHzVIEhKvCDaF-48" target="JfAFxv9XHzVIEhKvCDaF-51">
          <mxGeometry relative="1" as="geometry" />
        </mxCell>
        <mxCell id="JfAFxv9XHzVIEhKvCDaF-48" value="2.3" style="ellipse;whiteSpace=wrap;html=1;aspect=fixed;" vertex="1" parent="1">
          <mxGeometry x="110" y="300" width="40" height="40" as="geometry" />
        </mxCell>
        <mxCell id="lcrHF27Oe8sUzLJfKoiB-34" style="edgeStyle=orthogonalEdgeStyle;rounded=0;orthogonalLoop=1;jettySize=auto;html=1;entryX=0;entryY=0.5;entryDx=0;entryDy=0;exitX=0.917;exitY=0.613;exitDx=0;exitDy=0;exitPerimeter=0;" edge="1" parent="1" source="JfAFxv9XHzVIEhKvCDaF-51" target="JfAFxv9XHzVIEhKvCDaF-57">
          <mxGeometry relative="1" as="geometry">
            <Array as="points">
              <mxPoint x="241" y="295" />
              <mxPoint x="241" y="280" />
              <mxPoint x="360" y="280" />
            </Array>
          </mxGeometry>
        </mxCell>
        <mxCell id="lcrHF27Oe8sUzLJfKoiB-35" value="1" style="edgeLabel;html=1;align=center;verticalAlign=middle;resizable=0;points=[];" connectable="0" vertex="1" parent="lcrHF27Oe8sUzLJfKoiB-34">
          <mxGeometry x="-0.1982" relative="1" as="geometry">
            <mxPoint as="offset" />
          </mxGeometry>
        </mxCell>
        <mxCell id="JfAFxv9XHzVIEhKvCDaF-51" value="2.3.1" style="ellipse;whiteSpace=wrap;html=1;aspect=fixed;" vertex="1" parent="1">
          <mxGeometry x="200" y="270" width="40" height="40" as="geometry" />
        </mxCell>
        <mxCell id="1YkeTyR81IGIItmo_7Jy-38" style="edgeStyle=orthogonalEdgeStyle;rounded=0;orthogonalLoop=1;jettySize=auto;html=1;entryX=0;entryY=0.5;entryDx=0;entryDy=0;fillColor=#f8cecc;strokeColor=#b85450;" edge="1" parent="1" source="JfAFxv9XHzVIEhKvCDaF-53" target="JfAFxv9XHzVIEhKvCDaF-58">
          <mxGeometry relative="1" as="geometry" />
        </mxCell>
        <mxCell id="1YkeTyR81IGIItmo_7Jy-39" value="3" style="edgeLabel;html=1;align=center;verticalAlign=middle;resizable=0;points=[];" connectable="0" vertex="1" parent="1YkeTyR81IGIItmo_7Jy-38">
          <mxGeometry x="-0.2963" y="-1" relative="1" as="geometry">
            <mxPoint y="9" as="offset" />
          </mxGeometry>
        </mxCell>
        <mxCell id="JfAFxv9XHzVIEhKvCDaF-53" value="2.3.2" style="ellipse;whiteSpace=wrap;html=1;aspect=fixed;" vertex="1" parent="1">
          <mxGeometry x="263.12" y="320" width="40" height="40" as="geometry" />
        </mxCell>
        <mxCell id="JfAFxv9XHzVIEhKvCDaF-54" style="edgeStyle=orthogonalEdgeStyle;rounded=0;orthogonalLoop=1;jettySize=auto;html=1;entryX=0.097;entryY=0.65;entryDx=0;entryDy=0;entryPerimeter=0;fillColor=#f8cecc;strokeColor=#b85450;" edge="1" parent="1" source="JfAFxv9XHzVIEhKvCDaF-48" target="JfAFxv9XHzVIEhKvCDaF-53">
          <mxGeometry relative="1" as="geometry" />
        </mxCell>
        <mxCell id="1YkeTyR81IGIItmo_7Jy-31" value="3" style="edgeLabel;html=1;align=center;verticalAlign=middle;resizable=0;points=[];" connectable="0" vertex="1" parent="JfAFxv9XHzVIEhKvCDaF-54">
          <mxGeometry x="-0.5956" y="2" relative="1" as="geometry">
            <mxPoint x="-8" y="-8" as="offset" />
          </mxGeometry>
        </mxCell>
        <mxCell id="1YkeTyR81IGIItmo_7Jy-45" value="3" style="edgeLabel;html=1;align=center;verticalAlign=middle;resizable=0;points=[];" connectable="0" vertex="1" parent="JfAFxv9XHzVIEhKvCDaF-54">
          <mxGeometry x="0.3219" relative="1" as="geometry">
            <mxPoint as="offset" />
          </mxGeometry>
        </mxCell>
        <mxCell id="JfAFxv9XHzVIEhKvCDaF-62" style="edgeStyle=orthogonalEdgeStyle;rounded=0;orthogonalLoop=1;jettySize=auto;html=1;entryX=0;entryY=0.5;entryDx=0;entryDy=0;" edge="1" parent="1" source="JfAFxv9XHzVIEhKvCDaF-57" target="JfAFxv9XHzVIEhKvCDaF-61">
          <mxGeometry relative="1" as="geometry" />
        </mxCell>
        <mxCell id="1YkeTyR81IGIItmo_7Jy-42" value="17" style="edgeLabel;html=1;align=center;verticalAlign=middle;resizable=0;points=[];" connectable="0" vertex="1" parent="JfAFxv9XHzVIEhKvCDaF-62">
          <mxGeometry x="-0.5971" y="1" relative="1" as="geometry">
            <mxPoint as="offset" />
          </mxGeometry>
        </mxCell>
        <mxCell id="JfAFxv9XHzVIEhKvCDaF-57" value="2.4" style="ellipse;whiteSpace=wrap;html=1;aspect=fixed;" vertex="1" parent="1">
          <mxGeometry x="360" y="270" width="40" height="40" as="geometry" />
        </mxCell>
        <mxCell id="JfAFxv9XHzVIEhKvCDaF-64" style="edgeStyle=orthogonalEdgeStyle;rounded=0;orthogonalLoop=1;jettySize=auto;html=1;entryX=0;entryY=0.5;entryDx=0;entryDy=0;fillColor=#f8cecc;strokeColor=#b85450;" edge="1" parent="1" source="JfAFxv9XHzVIEhKvCDaF-58" target="JfAFxv9XHzVIEhKvCDaF-61">
          <mxGeometry relative="1" as="geometry" />
        </mxCell>
        <mxCell id="1YkeTyR81IGIItmo_7Jy-43" value="17" style="edgeLabel;html=1;align=center;verticalAlign=middle;resizable=0;points=[];" connectable="0" vertex="1" parent="JfAFxv9XHzVIEhKvCDaF-64">
          <mxGeometry x="-0.2776" relative="1" as="geometry">
            <mxPoint as="offset" />
          </mxGeometry>
        </mxCell>
        <mxCell id="JfAFxv9XHzVIEhKvCDaF-58" value="2.5" style="ellipse;whiteSpace=wrap;html=1;aspect=fixed;" vertex="1" parent="1">
          <mxGeometry x="360" y="330" width="40" height="40" as="geometry" />
        </mxCell>
        <mxCell id="JfAFxv9XHzVIEhKvCDaF-66" style="edgeStyle=orthogonalEdgeStyle;rounded=0;orthogonalLoop=1;jettySize=auto;html=1;entryX=0;entryY=0.5;entryDx=0;entryDy=0;fillColor=#f8cecc;strokeColor=#b85450;" edge="1" parent="1" source="JfAFxv9XHzVIEhKvCDaF-61" target="JfAFxv9XHzVIEhKvCDaF-65">
          <mxGeometry relative="1" as="geometry" />
        </mxCell>
        <mxCell id="1YkeTyR81IGIItmo_7Jy-44" value="8" style="edgeLabel;html=1;align=center;verticalAlign=middle;resizable=0;points=[];" connectable="0" vertex="1" parent="JfAFxv9XHzVIEhKvCDaF-66">
          <mxGeometry x="-0.5452" relative="1" as="geometry">
            <mxPoint y="-10" as="offset" />
          </mxGeometry>
        </mxCell>
        <mxCell id="JfAFxv9XHzVIEhKvCDaF-61" value="2.6" style="ellipse;whiteSpace=wrap;html=1;aspect=fixed;" vertex="1" parent="1">
          <mxGeometry x="458.5" y="300" width="40" height="40" as="geometry" />
        </mxCell>
        <mxCell id="JfAFxv9XHzVIEhKvCDaF-70" style="edgeStyle=orthogonalEdgeStyle;rounded=0;orthogonalLoop=1;jettySize=auto;html=1;entryX=0;entryY=0.5;entryDx=0;entryDy=0;" edge="1" parent="1" source="JfAFxv9XHzVIEhKvCDaF-65" target="JfAFxv9XHzVIEhKvCDaF-67">
          <mxGeometry relative="1" as="geometry">
            <Array as="points">
              <mxPoint x="550" y="410" />
              <mxPoint x="20" y="410" />
              <mxPoint x="20" y="450" />
            </Array>
          </mxGeometry>
        </mxCell>
        <mxCell id="JfAFxv9XHzVIEhKvCDaF-71" style="edgeStyle=orthogonalEdgeStyle;rounded=0;orthogonalLoop=1;jettySize=auto;html=1;entryX=0;entryY=0.5;entryDx=0;entryDy=0;fillColor=#f8cecc;strokeColor=#b85450;" edge="1" parent="1" source="JfAFxv9XHzVIEhKvCDaF-65" target="JfAFxv9XHzVIEhKvCDaF-68">
          <mxGeometry relative="1" as="geometry">
            <Array as="points">
              <mxPoint x="550" y="410" />
              <mxPoint x="20" y="410" />
              <mxPoint x="20" y="510" />
            </Array>
          </mxGeometry>
        </mxCell>
        <mxCell id="1YkeTyR81IGIItmo_7Jy-46" value="4" style="edgeLabel;html=1;align=center;verticalAlign=middle;resizable=0;points=[];" connectable="0" vertex="1" parent="JfAFxv9XHzVIEhKvCDaF-71">
          <mxGeometry x="-0.0742" y="-1" relative="1" as="geometry">
            <mxPoint x="3" y="-9" as="offset" />
          </mxGeometry>
        </mxCell>
        <mxCell id="JfAFxv9XHzVIEhKvCDaF-65" value="2.7" style="ellipse;whiteSpace=wrap;html=1;aspect=fixed;" vertex="1" parent="1">
          <mxGeometry x="530" y="300" width="40" height="40" as="geometry" />
        </mxCell>
        <mxCell id="JfAFxv9XHzVIEhKvCDaF-72" style="edgeStyle=orthogonalEdgeStyle;rounded=0;orthogonalLoop=1;jettySize=auto;html=1;entryX=0;entryY=0.5;entryDx=0;entryDy=0;" edge="1" parent="1" source="JfAFxv9XHzVIEhKvCDaF-67" target="JfAFxv9XHzVIEhKvCDaF-69">
          <mxGeometry relative="1" as="geometry" />
        </mxCell>
        <mxCell id="1YkeTyR81IGIItmo_7Jy-47" value="7" style="edgeLabel;html=1;align=center;verticalAlign=middle;resizable=0;points=[];" connectable="0" vertex="1" parent="JfAFxv9XHzVIEhKvCDaF-72">
          <mxGeometry x="-0.5885" y="3" relative="1" as="geometry">
            <mxPoint as="offset" />
          </mxGeometry>
        </mxCell>
        <mxCell id="JfAFxv9XHzVIEhKvCDaF-67" value="3.1" style="ellipse;whiteSpace=wrap;html=1;aspect=fixed;" vertex="1" parent="1">
          <mxGeometry x="40" y="430" width="40" height="40" as="geometry" />
        </mxCell>
        <mxCell id="JfAFxv9XHzVIEhKvCDaF-73" style="edgeStyle=orthogonalEdgeStyle;rounded=0;orthogonalLoop=1;jettySize=auto;html=1;entryX=0;entryY=0.5;entryDx=0;entryDy=0;fillColor=#f8cecc;strokeColor=#b85450;" edge="1" parent="1" source="JfAFxv9XHzVIEhKvCDaF-68" target="JfAFxv9XHzVIEhKvCDaF-69">
          <mxGeometry relative="1" as="geometry" />
        </mxCell>
        <mxCell id="1YkeTyR81IGIItmo_7Jy-48" value="7" style="edgeLabel;html=1;align=center;verticalAlign=middle;resizable=0;points=[];" connectable="0" vertex="1" parent="JfAFxv9XHzVIEhKvCDaF-73">
          <mxGeometry x="-0.5732" y="-1" relative="1" as="geometry">
            <mxPoint as="offset" />
          </mxGeometry>
        </mxCell>
        <mxCell id="JfAFxv9XHzVIEhKvCDaF-68" value="3.2" style="ellipse;whiteSpace=wrap;html=1;aspect=fixed;" vertex="1" parent="1">
          <mxGeometry x="40" y="490" width="40" height="40" as="geometry" />
        </mxCell>
        <mxCell id="JfAFxv9XHzVIEhKvCDaF-75" style="edgeStyle=orthogonalEdgeStyle;rounded=0;orthogonalLoop=1;jettySize=auto;html=1;entryX=0;entryY=0.5;entryDx=0;entryDy=0;fillColor=#f8cecc;strokeColor=#b85450;" edge="1" parent="1" source="JfAFxv9XHzVIEhKvCDaF-69" target="JfAFxv9XHzVIEhKvCDaF-74">
          <mxGeometry relative="1" as="geometry" />
        </mxCell>
        <mxCell id="1YkeTyR81IGIItmo_7Jy-49" value="4" style="edgeLabel;html=1;align=center;verticalAlign=middle;resizable=0;points=[];" connectable="0" vertex="1" parent="JfAFxv9XHzVIEhKvCDaF-75">
          <mxGeometry x="-0.1421" relative="1" as="geometry">
            <mxPoint as="offset" />
          </mxGeometry>
        </mxCell>
        <mxCell id="JfAFxv9XHzVIEhKvCDaF-69" value="3.3" style="ellipse;whiteSpace=wrap;html=1;aspect=fixed;" vertex="1" parent="1">
          <mxGeometry x="140" y="460" width="40" height="40" as="geometry" />
        </mxCell>
        <mxCell id="JfAFxv9XHzVIEhKvCDaF-74" value="3.4" style="ellipse;whiteSpace=wrap;html=1;aspect=fixed;" vertex="1" parent="1">
          <mxGeometry x="221.56" y="460" width="40" height="40" as="geometry" />
        </mxCell>
        <mxCell id="lcrHF27Oe8sUzLJfKoiB-7" style="edgeStyle=orthogonalEdgeStyle;rounded=0;orthogonalLoop=1;jettySize=auto;html=1;entryX=0;entryY=0.5;entryDx=0;entryDy=0;fillColor=#f8cecc;strokeColor=#b85450;" edge="1" parent="1" source="JfAFxv9XHzVIEhKvCDaF-5" target="JfAFxv9XHzVIEhKvCDaF-34">
          <mxGeometry relative="1" as="geometry" />
        </mxCell>
        <mxCell id="lcrHF27Oe8sUzLJfKoiB-16" value="4" style="edgeLabel;html=1;align=center;verticalAlign=middle;resizable=0;points=[];" connectable="0" vertex="1" parent="lcrHF27Oe8sUzLJfKoiB-7">
          <mxGeometry x="-0.6483" relative="1" as="geometry">
            <mxPoint as="offset" />
          </mxGeometry>
        </mxCell>
        <mxCell id="JfAFxv9XHzVIEhKvCDaF-5" value="1.3" style="ellipse;whiteSpace=wrap;html=1;aspect=fixed;" vertex="1" parent="1">
          <mxGeometry x="384.37" y="8.13" width="41.87" height="41.87" as="geometry" />
        </mxCell>
        <mxCell id="1YkeTyR81IGIItmo_7Jy-9" style="edgeStyle=orthogonalEdgeStyle;rounded=0;orthogonalLoop=1;jettySize=auto;html=1;fillColor=#f8cecc;strokeColor=#b85450;" edge="1" parent="1" source="1YkeTyR81IGIItmo_7Jy-6">
          <mxGeometry relative="1" as="geometry">
            <mxPoint x="379.9999999999999" y="29.069999999999993" as="targetPoint" />
          </mxGeometry>
        </mxCell>
        <mxCell id="1YkeTyR81IGIItmo_7Jy-10" value="1" style="edgeLabel;html=1;align=center;verticalAlign=middle;resizable=0;points=[];" connectable="0" vertex="1" parent="1YkeTyR81IGIItmo_7Jy-9">
          <mxGeometry x="0.0426" relative="1" as="geometry">
            <mxPoint x="-1" y="-10" as="offset" />
          </mxGeometry>
        </mxCell>
        <mxCell id="1YkeTyR81IGIItmo_7Jy-13" style="edgeStyle=orthogonalEdgeStyle;rounded=0;orthogonalLoop=1;jettySize=auto;html=1;entryX=0;entryY=0.5;entryDx=0;entryDy=0;" edge="1" parent="1" source="1YkeTyR81IGIItmo_7Jy-6" target="JfAFxv9XHzVIEhKvCDaF-7">
          <mxGeometry relative="1" as="geometry">
            <Array as="points">
              <mxPoint x="320" y="130" />
            </Array>
          </mxGeometry>
        </mxCell>
        <mxCell id="1YkeTyR81IGIItmo_7Jy-15" value="1" style="edgeLabel;html=1;align=center;verticalAlign=middle;resizable=0;points=[];" connectable="0" vertex="1" parent="1YkeTyR81IGIItmo_7Jy-13">
          <mxGeometry x="0.5115" y="3" relative="1" as="geometry">
            <mxPoint x="1" y="-7" as="offset" />
          </mxGeometry>
        </mxCell>
        <mxCell id="1YkeTyR81IGIItmo_7Jy-6" value="1.2.3" style="ellipse;whiteSpace=wrap;html=1;aspect=fixed;" vertex="1" parent="1">
          <mxGeometry x="300" y="9.07" width="40" height="40" as="geometry" />
        </mxCell>
        <mxCell id="1YkeTyR81IGIItmo_7Jy-12" value="1" style="edgeStyle=orthogonalEdgeStyle;rounded=0;orthogonalLoop=1;jettySize=auto;html=1;entryX=0.02;entryY=0.623;entryDx=0;entryDy=0;entryPerimeter=0;" edge="1" parent="1" source="1YkeTyR81IGIItmo_7Jy-6" target="JfAFxv9XHzVIEhKvCDaF-6">
          <mxGeometry x="0.3553" y="5" relative="1" as="geometry">
            <Array as="points">
              <mxPoint x="320" y="80" />
              <mxPoint x="386" y="80" />
            </Array>
            <mxPoint as="offset" />
          </mxGeometry>
        </mxCell>
        <mxCell id="1YkeTyR81IGIItmo_7Jy-40" style="edgeStyle=orthogonalEdgeStyle;rounded=0;orthogonalLoop=1;jettySize=auto;html=1;entryX=0;entryY=0.25;entryDx=0;entryDy=0;entryPerimeter=0;" edge="1" parent="1" source="JfAFxv9XHzVIEhKvCDaF-53" target="JfAFxv9XHzVIEhKvCDaF-57">
          <mxGeometry relative="1" as="geometry" />
        </mxCell>
        <mxCell id="1YkeTyR81IGIItmo_7Jy-41" value="3" style="edgeLabel;html=1;align=center;verticalAlign=middle;resizable=0;points=[];" connectable="0" vertex="1" parent="1YkeTyR81IGIItmo_7Jy-40">
          <mxGeometry x="0.1167" relative="1" as="geometry">
            <mxPoint x="-12" y="-3" as="offset" />
          </mxGeometry>
        </mxCell>
        <mxCell id="1YkeTyR81IGIItmo_7Jy-50" value="&lt;span style=&quot;font-size: 8px;&quot;&gt;0/0&lt;/span&gt;" style="text;html=1;align=center;verticalAlign=middle;resizable=0;points=[];autosize=1;strokeColor=none;fillColor=none;" vertex="1" parent="1">
          <mxGeometry x="10" y="40" width="30" height="30" as="geometry" />
        </mxCell>
        <mxCell id="1YkeTyR81IGIItmo_7Jy-51" value="&lt;font style=&quot;font-size: 8px;&quot;&gt;1/1&lt;/font&gt;" style="text;html=1;align=center;verticalAlign=middle;resizable=0;points=[];autosize=1;strokeColor=none;fillColor=none;" vertex="1" parent="1">
          <mxGeometry x="85" y="40" width="30" height="30" as="geometry" />
        </mxCell>
        <mxCell id="1YkeTyR81IGIItmo_7Jy-52" value="&lt;font style=&quot;font-size: 8px;&quot;&gt;4/4&lt;/font&gt;" style="text;html=1;align=center;verticalAlign=middle;resizable=0;points=[];autosize=1;strokeColor=none;fillColor=none;" vertex="1" parent="1">
          <mxGeometry x="156.25" y="40" width="30" height="30" as="geometry" />
        </mxCell>
        <mxCell id="1YkeTyR81IGIItmo_7Jy-53" value="&lt;font style=&quot;font-size: 8px;&quot;&gt;7/7&lt;/font&gt;" style="text;html=1;align=center;verticalAlign=middle;resizable=0;points=[];autosize=1;strokeColor=none;fillColor=none;" vertex="1" parent="1">
          <mxGeometry x="226.56" y="40" width="30" height="30" as="geometry" />
        </mxCell>
        <mxCell id="1YkeTyR81IGIItmo_7Jy-55" value="&lt;font style=&quot;font-size: 8px;&quot;&gt;10/10&lt;/font&gt;" style="text;html=1;align=center;verticalAlign=middle;resizable=0;points=[];autosize=1;strokeColor=none;fillColor=none;" vertex="1" parent="1">
          <mxGeometry x="300" y="-10" width="40" height="30" as="geometry" />
        </mxCell>
        <mxCell id="1YkeTyR81IGIItmo_7Jy-56" value="&lt;font style=&quot;font-size: 8px;&quot;&gt;11/11&lt;/font&gt;" style="text;html=1;align=center;verticalAlign=middle;resizable=0;points=[];autosize=1;strokeColor=none;fillColor=none;" vertex="1" parent="1">
          <mxGeometry x="384.37" y="-10" width="40" height="30" as="geometry" />
        </mxCell>
        <mxCell id="1YkeTyR81IGIItmo_7Jy-57" value="&lt;font style=&quot;font-size: 8px;&quot;&gt;11/11&lt;/font&gt;" style="text;html=1;align=center;verticalAlign=middle;resizable=0;points=[];autosize=1;strokeColor=none;fillColor=none;" vertex="1" parent="1">
          <mxGeometry x="384.37" y="40" width="40" height="30" as="geometry" />
        </mxCell>
        <mxCell id="1YkeTyR81IGIItmo_7Jy-58" value="&lt;font style=&quot;font-size: 8px;&quot;&gt;11/11&lt;/font&gt;" style="text;html=1;align=center;verticalAlign=middle;resizable=0;points=[];autosize=1;strokeColor=none;fillColor=none;" vertex="1" parent="1">
          <mxGeometry x="384.37" y="90" width="40" height="30" as="geometry" />
        </mxCell>
        <mxCell id="1YkeTyR81IGIItmo_7Jy-66" value="&lt;span style=&quot;font-size: 8px;&quot;&gt;19/16&lt;/span&gt;" style="text;html=1;align=center;verticalAlign=middle;resizable=0;points=[];autosize=1;strokeColor=none;fillColor=none;" vertex="1" parent="1">
          <mxGeometry x="40" y="250" width="40" height="30" as="geometry" />
        </mxCell>
        <mxCell id="1YkeTyR81IGIItmo_7Jy-67" value="&lt;span style=&quot;font-size: 8px;&quot;&gt;18/16&lt;/span&gt;" style="text;html=1;align=center;verticalAlign=middle;resizable=0;points=[];autosize=1;strokeColor=none;fillColor=none;" vertex="1" parent="1">
          <mxGeometry x="40" y="310" width="40" height="30" as="geometry" />
        </mxCell>
        <mxCell id="1YkeTyR81IGIItmo_7Jy-68" value="&lt;span style=&quot;font-size: 8px;&quot;&gt;22/20&lt;/span&gt;" style="text;html=1;align=center;verticalAlign=middle;resizable=0;points=[];autosize=1;strokeColor=none;fillColor=none;" vertex="1" parent="1">
          <mxGeometry x="129" y="280" width="40" height="30" as="geometry" />
        </mxCell>
        <mxCell id="1YkeTyR81IGIItmo_7Jy-69" value="&lt;span style=&quot;font-size: 8px;&quot;&gt;25/22&lt;/span&gt;" style="text;html=1;align=center;verticalAlign=middle;resizable=0;points=[];autosize=1;strokeColor=none;fillColor=none;" vertex="1" parent="1">
          <mxGeometry x="217.56" y="247" width="40" height="30" as="geometry" />
        </mxCell>
        <mxCell id="1YkeTyR81IGIItmo_7Jy-70" value="&lt;span style=&quot;font-size: 8px;&quot;&gt;24/24&lt;/span&gt;" style="text;html=1;align=center;verticalAlign=middle;resizable=0;points=[];autosize=1;strokeColor=none;fillColor=none;" vertex="1" parent="1">
          <mxGeometry x="263.12" y="300" width="40" height="30" as="geometry" />
        </mxCell>
        <mxCell id="1YkeTyR81IGIItmo_7Jy-71" value="&lt;span style=&quot;font-size: 8px;&quot;&gt;26/26&lt;/span&gt;" style="text;html=1;align=center;verticalAlign=middle;resizable=0;points=[];autosize=1;strokeColor=none;fillColor=none;" vertex="1" parent="1">
          <mxGeometry x="360" y="250" width="40" height="30" as="geometry" />
        </mxCell>
        <mxCell id="1YkeTyR81IGIItmo_7Jy-72" value="&lt;span style=&quot;font-size: 8px;&quot;&gt;26/26&lt;/span&gt;" style="text;html=1;align=center;verticalAlign=middle;resizable=0;points=[];autosize=1;strokeColor=none;fillColor=none;" vertex="1" parent="1">
          <mxGeometry x="360" y="310" width="40" height="30" as="geometry" />
        </mxCell>
        <mxCell id="1YkeTyR81IGIItmo_7Jy-73" value="&lt;span style=&quot;font-size: 8px;&quot;&gt;47/47&lt;/span&gt;" style="text;html=1;align=center;verticalAlign=middle;resizable=0;points=[];autosize=1;strokeColor=none;fillColor=none;" vertex="1" parent="1">
          <mxGeometry x="458.5" y="280" width="40" height="30" as="geometry" />
        </mxCell>
        <mxCell id="1YkeTyR81IGIItmo_7Jy-74" value="&lt;span style=&quot;font-size: 8px;&quot;&gt;55/55&lt;/span&gt;" style="text;html=1;align=center;verticalAlign=middle;resizable=0;points=[];autosize=1;strokeColor=none;fillColor=none;" vertex="1" parent="1">
          <mxGeometry x="530" y="280" width="40" height="30" as="geometry" />
        </mxCell>
        <mxCell id="1YkeTyR81IGIItmo_7Jy-75" value="&lt;span style=&quot;font-size: 8px;&quot;&gt;0/59&lt;/span&gt;" style="text;html=1;align=center;verticalAlign=middle;resizable=0;points=[];autosize=1;strokeColor=none;fillColor=none;" vertex="1" parent="1">
          <mxGeometry x="40" y="410" width="40" height="30" as="geometry" />
        </mxCell>
        <mxCell id="1YkeTyR81IGIItmo_7Jy-76" value="&lt;span style=&quot;font-size: 8px;&quot;&gt;0/59&lt;/span&gt;" style="text;html=1;align=center;verticalAlign=middle;resizable=0;points=[];autosize=1;strokeColor=none;fillColor=none;" vertex="1" parent="1">
          <mxGeometry x="40" y="470" width="40" height="30" as="geometry" />
        </mxCell>
        <mxCell id="1YkeTyR81IGIItmo_7Jy-77" value="&lt;span style=&quot;font-size: 8px;&quot;&gt;66/66&lt;/span&gt;" style="text;html=1;align=center;verticalAlign=middle;resizable=0;points=[];autosize=1;strokeColor=none;fillColor=none;" vertex="1" parent="1">
          <mxGeometry x="140" y="435" width="40" height="30" as="geometry" />
        </mxCell>
        <mxCell id="1YkeTyR81IGIItmo_7Jy-78" value="&lt;span style=&quot;font-size: 8px;&quot;&gt;70/70&lt;/span&gt;" style="text;html=1;align=center;verticalAlign=middle;resizable=0;points=[];autosize=1;strokeColor=none;fillColor=none;" vertex="1" parent="1">
          <mxGeometry x="223.12" y="435" width="40" height="30" as="geometry" />
        </mxCell>
        <mxCell id="z2k_7jXKvmVWs2d7WAhr-1" value="&lt;div style=&quot;font-size: 8px;&quot;&gt;0&lt;/div&gt;" style="text;html=1;align=center;verticalAlign=middle;resizable=0;points=[];autosize=1;strokeColor=none;fillColor=none;" vertex="1" parent="1">
          <mxGeometry x="10" y="60" width="30" height="20" as="geometry" />
        </mxCell>
        <mxCell id="z2k_7jXKvmVWs2d7WAhr-2" value="&lt;div style=&quot;font-size: 8px;&quot;&gt;0&lt;/div&gt;" style="text;html=1;align=center;verticalAlign=middle;resizable=0;points=[];autosize=1;strokeColor=none;fillColor=none;" vertex="1" parent="1">
          <mxGeometry x="85" y="60" width="30" height="20" as="geometry" />
        </mxCell>
        <mxCell id="z2k_7jXKvmVWs2d7WAhr-3" value="&lt;div style=&quot;font-size: 8px;&quot;&gt;0&lt;/div&gt;" style="text;html=1;align=center;verticalAlign=middle;resizable=0;points=[];autosize=1;strokeColor=none;fillColor=none;" vertex="1" parent="1">
          <mxGeometry x="156.25" y="60" width="30" height="20" as="geometry" />
        </mxCell>
        <mxCell id="z2k_7jXKvmVWs2d7WAhr-4" value="&lt;div style=&quot;font-size: 8px;&quot;&gt;0&lt;/div&gt;" style="text;html=1;align=center;verticalAlign=middle;resizable=0;points=[];autosize=1;strokeColor=none;fillColor=none;" vertex="1" parent="1">
          <mxGeometry x="226.56" y="60" width="30" height="20" as="geometry" />
        </mxCell>
        <mxCell id="z2k_7jXKvmVWs2d7WAhr-5" value="&lt;div style=&quot;font-size: 8px;&quot;&gt;2&lt;/div&gt;" style="text;html=1;align=center;verticalAlign=middle;resizable=0;points=[];autosize=1;strokeColor=none;fillColor=none;" vertex="1" parent="1">
          <mxGeometry x="320" width="30" height="20" as="geometry" />
        </mxCell>
        <mxCell id="z2k_7jXKvmVWs2d7WAhr-6" value="&lt;div style=&quot;font-size: 8px;&quot;&gt;0&lt;/div&gt;" style="text;html=1;align=center;verticalAlign=middle;resizable=0;points=[];autosize=1;strokeColor=none;fillColor=none;" vertex="1" parent="1">
          <mxGeometry x="410" width="30" height="20" as="geometry" />
        </mxCell>
        <mxCell id="z2k_7jXKvmVWs2d7WAhr-7" value="&lt;div style=&quot;font-size: 8px;&quot;&gt;0&lt;/div&gt;" style="text;html=1;align=center;verticalAlign=middle;resizable=0;points=[];autosize=1;strokeColor=none;fillColor=none;" vertex="1" parent="1">
          <mxGeometry x="410" y="50" width="30" height="20" as="geometry" />
        </mxCell>
        <mxCell id="z2k_7jXKvmVWs2d7WAhr-8" value="&lt;div style=&quot;font-size: 8px;&quot;&gt;2&lt;/div&gt;" style="text;html=1;align=center;verticalAlign=middle;resizable=0;points=[];autosize=1;strokeColor=none;fillColor=none;" vertex="1" parent="1">
          <mxGeometry x="463.5" y="90" width="30" height="20" as="geometry" />
        </mxCell>
        <mxCell id="z2k_7jXKvmVWs2d7WAhr-9" value="&lt;div style=&quot;font-size: 8px;&quot;&gt;0&lt;/div&gt;" style="text;html=1;align=center;verticalAlign=middle;resizable=0;points=[];autosize=1;strokeColor=none;fillColor=none;" vertex="1" parent="1">
          <mxGeometry x="410" y="100" width="30" height="20" as="geometry" />
        </mxCell>
        <mxCell id="z2k_7jXKvmVWs2d7WAhr-16" value="&lt;div style=&quot;font-size: 8px;&quot;&gt;2&lt;/div&gt;" style="text;html=1;align=center;verticalAlign=middle;resizable=0;points=[];autosize=1;strokeColor=none;fillColor=none;" vertex="1" parent="1">
          <mxGeometry x="61" y="322" width="30" height="20" as="geometry" />
        </mxCell>
        <mxCell id="z2k_7jXKvmVWs2d7WAhr-17" value="&lt;div style=&quot;font-size: 8px;&quot;&gt;3&lt;/div&gt;" style="text;html=1;align=center;verticalAlign=middle;resizable=0;points=[];autosize=1;strokeColor=none;fillColor=none;" vertex="1" parent="1">
          <mxGeometry x="61" y="260" width="30" height="20" as="geometry" />
        </mxCell>
        <mxCell id="z2k_7jXKvmVWs2d7WAhr-18" value="&lt;div style=&quot;font-size: 8px;&quot;&gt;2&lt;/div&gt;" style="text;html=1;align=center;verticalAlign=middle;resizable=0;points=[];autosize=1;strokeColor=none;fillColor=none;" vertex="1" parent="1">
          <mxGeometry x="136" y="296" width="30" height="20" as="geometry" />
        </mxCell>
        <mxCell id="z2k_7jXKvmVWs2d7WAhr-19" value="&lt;div style=&quot;font-size: 8px;&quot;&gt;3&lt;/div&gt;" style="text;html=1;align=center;verticalAlign=middle;resizable=0;points=[];autosize=1;strokeColor=none;fillColor=none;" vertex="1" parent="1">
          <mxGeometry x="223.12" y="262" width="30" height="20" as="geometry" />
        </mxCell>
        <mxCell id="z2k_7jXKvmVWs2d7WAhr-20" value="&lt;div style=&quot;font-size: 8px;&quot;&gt;0&lt;/div&gt;" style="text;html=1;align=center;verticalAlign=middle;resizable=0;points=[];autosize=1;strokeColor=none;fillColor=none;" vertex="1" parent="1">
          <mxGeometry x="286" y="313" width="30" height="20" as="geometry" />
        </mxCell>
        <mxCell id="z2k_7jXKvmVWs2d7WAhr-21" value="&lt;div style=&quot;font-size: 8px;&quot;&gt;0&lt;/div&gt;" style="text;html=1;align=center;verticalAlign=middle;resizable=0;points=[];autosize=1;strokeColor=none;fillColor=none;" vertex="1" parent="1">
          <mxGeometry x="384" y="260" width="30" height="20" as="geometry" />
        </mxCell>
        <mxCell id="z2k_7jXKvmVWs2d7WAhr-22" value="&lt;div style=&quot;font-size: 8px;&quot;&gt;0&lt;/div&gt;" style="text;html=1;align=center;verticalAlign=middle;resizable=0;points=[];autosize=1;strokeColor=none;fillColor=none;" vertex="1" parent="1">
          <mxGeometry x="384" y="322" width="30" height="20" as="geometry" />
        </mxCell>
        <mxCell id="z2k_7jXKvmVWs2d7WAhr-23" value="&lt;div style=&quot;font-size: 8px;&quot;&gt;0&lt;/div&gt;" style="text;html=1;align=center;verticalAlign=middle;resizable=0;points=[];autosize=1;strokeColor=none;fillColor=none;" vertex="1" parent="1">
          <mxGeometry x="481.25" y="293" width="30" height="20" as="geometry" />
        </mxCell>
        <mxCell id="z2k_7jXKvmVWs2d7WAhr-24" value="&lt;div style=&quot;font-size: 8px;&quot;&gt;0&lt;/div&gt;" style="text;html=1;align=center;verticalAlign=middle;resizable=0;points=[];autosize=1;strokeColor=none;fillColor=none;" vertex="1" parent="1">
          <mxGeometry x="550" y="290" width="30" height="20" as="geometry" />
        </mxCell>
        <mxCell id="z2k_7jXKvmVWs2d7WAhr-25" value="&lt;div style=&quot;font-size: 8px;&quot;&gt;0&lt;/div&gt;" style="text;html=1;align=center;verticalAlign=middle;resizable=0;points=[];autosize=1;strokeColor=none;fillColor=none;" vertex="1" parent="1">
          <mxGeometry x="60" y="422" width="30" height="20" as="geometry" />
        </mxCell>
        <mxCell id="z2k_7jXKvmVWs2d7WAhr-26" value="&lt;div style=&quot;font-size: 8px;&quot;&gt;0&lt;/div&gt;" style="text;html=1;align=center;verticalAlign=middle;resizable=0;points=[];autosize=1;strokeColor=none;fillColor=none;" vertex="1" parent="1">
          <mxGeometry x="60" y="480" width="30" height="20" as="geometry" />
        </mxCell>
        <mxCell id="z2k_7jXKvmVWs2d7WAhr-27" value="&lt;div style=&quot;font-size: 8px;&quot;&gt;0&lt;/div&gt;" style="text;html=1;align=center;verticalAlign=middle;resizable=0;points=[];autosize=1;strokeColor=none;fillColor=none;" vertex="1" parent="1">
          <mxGeometry x="160" y="450" width="30" height="20" as="geometry" />
        </mxCell>
        <mxCell id="z2k_7jXKvmVWs2d7WAhr-28" value="&lt;div style=&quot;font-size: 8px;&quot;&gt;0&lt;/div&gt;" style="text;html=1;align=center;verticalAlign=middle;resizable=0;points=[];autosize=1;strokeColor=none;fillColor=none;" vertex="1" parent="1">
          <mxGeometry x="240" y="450" width="30" height="20" as="geometry" />
        </mxCell>
        <mxCell id="lcrHF27Oe8sUzLJfKoiB-10" style="edgeStyle=orthogonalEdgeStyle;rounded=0;orthogonalLoop=1;jettySize=auto;html=1;entryX=-0.068;entryY=0.487;entryDx=0;entryDy=0;entryPerimeter=0;" edge="1" parent="1" source="JfAFxv9XHzVIEhKvCDaF-34" target="JfAFxv9XHzVIEhKvCDaF-18">
          <mxGeometry relative="1" as="geometry" />
        </mxCell>
        <mxCell id="lcrHF27Oe8sUzLJfKoiB-19" value="1" style="edgeLabel;html=1;align=center;verticalAlign=middle;resizable=0;points=[];" connectable="0" vertex="1" parent="lcrHF27Oe8sUzLJfKoiB-10">
          <mxGeometry x="-0.1556" y="1" relative="1" as="geometry">
            <mxPoint x="-9" y="-2" as="offset" />
          </mxGeometry>
        </mxCell>
        <mxCell id="lcrHF27Oe8sUzLJfKoiB-27" value="&lt;span style=&quot;font-size: 8px;&quot;&gt;0/15&lt;/span&gt;" style="text;html=1;align=center;verticalAlign=middle;resizable=0;points=[];autosize=1;strokeColor=none;fillColor=none;" vertex="1" parent="1">
          <mxGeometry x="457.5" y="73.75" width="40" height="30" as="geometry" />
        </mxCell>
        <mxCell id="lcrHF27Oe8sUzLJfKoiB-28" value="&lt;font style=&quot;font-size: 8px;&quot;&gt;0/16&lt;/font&gt;" style="text;html=1;align=center;verticalAlign=middle;resizable=0;points=[];autosize=1;strokeColor=none;fillColor=none;" vertex="1" parent="1">
          <mxGeometry x="490" y="-10" width="40" height="30" as="geometry" />
        </mxCell>
        <mxCell id="lcrHF27Oe8sUzLJfKoiB-29" value="&lt;font style=&quot;font-size: 8px;&quot;&gt;22/16&lt;/font&gt;" style="text;html=1;align=center;verticalAlign=middle;resizable=0;points=[];autosize=1;strokeColor=none;fillColor=none;" vertex="1" parent="1">
          <mxGeometry x="589.75" y="47" width="40" height="30" as="geometry" />
        </mxCell>
        <mxCell id="lcrHF27Oe8sUzLJfKoiB-30" value="&lt;font style=&quot;font-size: 8px;&quot;&gt;22/16&lt;/font&gt;" style="text;html=1;align=center;verticalAlign=middle;resizable=0;points=[];autosize=1;strokeColor=none;fillColor=none;" vertex="1" parent="1">
          <mxGeometry x="592" y="110" width="40" height="30" as="geometry" />
        </mxCell>
        <mxCell id="lcrHF27Oe8sUzLJfKoiB-31" value="&lt;font style=&quot;font-size: 8px;&quot;&gt;22/16&lt;/font&gt;" style="text;html=1;align=center;verticalAlign=middle;resizable=0;points=[];autosize=1;strokeColor=none;fillColor=none;" vertex="1" parent="1">
          <mxGeometry x="590.75" y="170" width="40" height="30" as="geometry" />
        </mxCell>
        <mxCell id="lcrHF27Oe8sUzLJfKoiB-32" value="&lt;font style=&quot;font-size: 8px;&quot;&gt;22/17&lt;/font&gt;" style="text;html=1;align=center;verticalAlign=middle;resizable=0;points=[];autosize=1;strokeColor=none;fillColor=none;" vertex="1" parent="1">
          <mxGeometry x="610" y="-10" width="40" height="30" as="geometry" />
        </mxCell>
        <mxCell id="lcrHF27Oe8sUzLJfKoiB-33" value="&lt;font style=&quot;font-size: 8px;&quot;&gt;23/18&lt;/font&gt;" style="text;html=1;align=center;verticalAlign=middle;resizable=0;points=[];autosize=1;strokeColor=none;fillColor=none;" vertex="1" parent="1">
          <mxGeometry x="750" y="-10" width="40" height="30" as="geometry" />
        </mxCell>
        <mxCell id="lcrHF27Oe8sUzLJfKoiB-36" value="&lt;font style=&quot;font-size: 8px;&quot;&gt;5&lt;/font&gt;" style="text;html=1;align=center;verticalAlign=middle;resizable=0;points=[];autosize=1;strokeColor=none;fillColor=none;" vertex="1" parent="1">
          <mxGeometry x="755" width="30" height="30" as="geometry" />
        </mxCell>
        <mxCell id="lcrHF27Oe8sUzLJfKoiB-37" value="&lt;font style=&quot;font-size: 8px;&quot;&gt;5&lt;/font&gt;" style="text;html=1;align=center;verticalAlign=middle;resizable=0;points=[];autosize=1;strokeColor=none;fillColor=none;" vertex="1" parent="1">
          <mxGeometry x="620" width="30" height="30" as="geometry" />
        </mxCell>
        <mxCell id="lcrHF27Oe8sUzLJfKoiB-38" value="&lt;span style=&quot;font-size: 8px;&quot;&gt;6&lt;/span&gt;" style="text;html=1;align=center;verticalAlign=middle;resizable=0;points=[];autosize=1;strokeColor=none;fillColor=none;" vertex="1" parent="1">
          <mxGeometry x="595.25" y="40" width="30" height="30" as="geometry" />
        </mxCell>
        <mxCell id="lcrHF27Oe8sUzLJfKoiB-39" value="&lt;span style=&quot;font-size: 8px;&quot;&gt;6&lt;/span&gt;" style="text;html=1;align=center;verticalAlign=middle;resizable=0;points=[];autosize=1;strokeColor=none;fillColor=none;" vertex="1" parent="1">
          <mxGeometry x="598.25" y="101" width="30" height="30" as="geometry" />
        </mxCell>
        <mxCell id="lcrHF27Oe8sUzLJfKoiB-40" value="&lt;span style=&quot;font-size: 8px;&quot;&gt;6&lt;/span&gt;" style="text;html=1;align=center;verticalAlign=middle;resizable=0;points=[];autosize=1;strokeColor=none;fillColor=none;" vertex="1" parent="1">
          <mxGeometry x="597" y="162" width="30" height="30" as="geometry" />
        </mxCell>
        <mxCell id="lcrHF27Oe8sUzLJfKoiB-41" value="&lt;span style=&quot;font-size: 8px;&quot;&gt;6&lt;/span&gt;" style="text;html=1;align=center;verticalAlign=middle;resizable=0;points=[];autosize=1;strokeColor=none;fillColor=none;" vertex="1" parent="1">
          <mxGeometry x="488.25" width="30" height="30" as="geometry" />
        </mxCell>
      </root>
    </mxGraphModel>
  </diagram>
</mxfile>
